# xmcd
#
# Track frame offsets:
#	150
#	22180
#	38347
#	65262
#	87001
#	114376
#	131824
#	151313
#	166659
#	186145
#	207834
#
# Disc length: 3014 seconds
#
# Revision: 1
# Processed by: cddbd v1.5.2PL0 Copyright (c) Steve Scherf et al.
# Submitted via: audiograbber 1.83.01
#
DISCID=830bc40b
DTITLE=Gordon Bonham - Soon In The Morning
DYEAR=2011
DGENRE=Country Blues
TTITLE0=Outta Sight
TTITLE1=All I Need Is A Little Time
TTITLE2=Looking For My Baby
TTITLE3=Everything But You
TTITLE4=Soon In The Morning
TTITLE5=Carmel Woman
TTITLE6=Local Honey
TTITLE7=Get Back, Zezebel
TTITLE8=Used To Be Lovers
TTITLE9=The Mule Song
TTITLE10=Don´t Let The Man Get Your Money
EXTD=
EXTT0=
EXTT1=
EXTT2=
EXTT3=
EXTT4=
EXTT5=
EXTT6=
EXTT7=
EXTT8=
EXTT9=
EXTT10=
PLAYORDER=
